<svg id="visual" viewBox="0 0 600 900" width="600" height="900" xmlns="http://www.w3.org/2000/svg" xmlns:xlink="http://www.w3.org/1999/xlink" version="1.1"><rect x="0" y="0" width="600" height="900" fill="#ffffff"></rect><defs><linearGradient id="grad1_0" x1="0%" y1="0%" x2="100%" y2="100%"><stop offset="30%" stop-color="#ffffff" stop-opacity="1"></stop><stop offset="70%" stop-color="#ffffff" stop-opacity="1"></stop></linearGradient></defs><defs><linearGradient id="grad2_0" x1="0%" y1="0%" x2="100%" y2="100%"><stop offset="30%" stop-color="#ffffff" stop-opacity="1"></stop><stop offset="70%" stop-color="#ffffff" stop-opacity="1"></stop></linearGradient></defs><g transform="translate(600, 0)"><path d="M0 486.7C-49.7 495.7 -99.3 504.6 -126 470.2C-152.6 435.7 -156.2 357.8 -195 337.7C-233.8 317.7 -307.6 355.5 -341.5 341.5C-375.4 327.6 -369.3 261.9 -374.1 216C-379 170.1 -394.8 144 -415.3 111.3C-435.9 78.6 -461.3 39.3 -486.7 0L0 0Z" fill="#D6E4E5"></path></g><g transform="translate(0, 900)"><path d="M0 -486.7C33.6 -451 67.2 -415.2 109.7 -409.6C152.3 -403.9 203.9 -428.5 243.4 -421.5C282.9 -414.6 310.2 -376.1 342.9 -342.9C375.7 -309.8 413.7 -282.1 420 -242.5C426.3 -202.9 400.8 -151.4 406.7 -109C412.5 -66.6 449.6 -33.3 486.7 0L0 0Z" fill="#D6E4E5"></path></g></svg>